<?xml version="1.0" encoding="UTF-8" standalone="no"?>
<svg
   xmlns:dc="http://purl.org/dc/elements/1.1/"
   xmlns:cc="http://creativecommons.org/ns#"
   xmlns:rdf="http://www.w3.org/1999/02/22-rdf-syntax-ns#"
   xmlns:svg="http://www.w3.org/2000/svg"
   xmlns="http://www.w3.org/2000/svg"
   xmlns:sodipodi="http://sodipodi.sourceforge.net/DTD/sodipodi-0.dtd"
   xmlns:inkscape="http://www.inkscape.org/namespaces/inkscape"
   id="b6fe4ea4-91cd-4e88-acbb-2663d3326f54"
   data-name="Layer 1"
   width="200"
   height="100"
   viewBox="0 0 200 99.999999"
   version="1.1"
   sodipodi:docname="Logo_StudyLinks.svg"
   inkscape:version="0.92.4 (5da689c313, 2019-01-14)">
  <metadata
     id="metadata1568">
    <rdf:RDF>
      <cc:Work
         rdf:about="">
        <dc:format>image/svg+xml</dc:format>
        <dc:type
           rdf:resource="http://purl.org/dc/dcmitype/StillImage" />
        <dc:title>Logo</dc:title>
      </cc:Work>
    </rdf:RDF>
  </metadata>
  <defs
     id="defs1566" />
  <sodipodi:namedview
     pagecolor="#ffffff"
     bordercolor="#666666"
     borderopacity="1"
     objecttolerance="10"
     gridtolerance="10"
     guidetolerance="10"
     inkscape:pageopacity="0"
     inkscape:pageshadow="2"
     inkscape:window-width="1366"
     inkscape:window-height="705"
     id="namedview1564"
     showgrid="false"
     inkscape:zoom="4.73"
     inkscape:cx="100"
     inkscape:cy="50"
     inkscape:window-x="-8"
     inkscape:window-y="-8"
     inkscape:window-maximized="1"
     inkscape:current-layer="g1612"
     showguides="true"
     inkscape:guide-bbox="true" />
  <title
     id="title1491">Logo</title>
  <g
     id="g1612"
     style="opacity:0.71">
    <rect
       y="0.20722584"
       x="-0.31381378"
       height="99.478958"
       width="200.84081"
       id="rect1595"
       style="opacity:0.98000004;fill:#8fc4e1;fill-opacity:1;stroke:none;stroke-width:105.56598663;stroke-linecap:round;stroke-linejoin:miter;stroke-miterlimit:4;stroke-dasharray:none;stroke-opacity:1" />
    <g
       transform="matrix(0.41536228,-0.04485313,0.04485313,0.41536228,-103.98078,-165.76157)"
       id="g1589"
       style="">
      <path
         d="m 406.73502,528.20762 -0.10586,-0.014 0.25826,0.98172 a 25.800387,25.800387 0 0 0 1.06005,4.02975 l 7.57454,28.79411 a 4.8803577,4.8803577 0 0 0 3.97365,3.58139 l 15.44702,2.3897 a 4.8803329,4.8803329 0 0 0 5.0486,-2.51946 L 454.671,538.03176 a 25.761125,25.761125 0 0 0 1.25573,-2.34541 l 0.4984,-0.93095 -0.0777,-0.0103 a 25.953497,25.953497 0 1 0 -49.61238,-6.53752 z"
         id="path1545"
         inkscape:connector-curvature="0"
         style="fill:#3f3d56;stroke-width:0.22796771" />
      <path
         d="m 435.89066,569.85158 a 5.3110982,5.3110982 0 0 1 -0.81258,-0.0626 l -16.14642,-2.49807 a 5.3278792,5.3278792 0 0 1 -4.33917,-3.91085 l -7.91742,-30.09764 a 27.140849,27.140849 0 0 1 -1.11201,-4.2302 l -0.20026,-1.31672 a 27.361964,27.361964 0 0 1 31.32107,-30.5165 l -0.0699,0.45059 a 26.915806,26.915806 0 0 0 -30.75994,30.29978 l 0.15394,0.98489 a 26.964226,26.964226 0 0 0 1.10266,4.19459 l 7.92289,30.11522 a 4.871613,4.871613 0 0 0 3.96783,3.57624 l 16.14642,2.49807 a 4.880105,4.880105 0 0 0 5.04133,-2.51588 l 0.40207,0.21505 a 5.3391678,5.3391678 0 0 1 -4.7005,2.81399 z"
         id="path1547"
         inkscape:connector-curvature="0"
         style="fill:#d0cde1;stroke-width:0.22796771" />
      <rect
         x="-379.38852"
         y="597.05353"
         width="28.567535"
         height="0.58969778"
         transform="rotate(-69.88499)"
         id="rect1549"
         style="fill:#d0cde1;stroke-width:0.22796771" />
      <rect
         x="399.58264"
         y="550.36658"
         width="0.58969778"
         height="28.567535"
         transform="rotate(-2.51583)"
         id="rect1551"
         style="fill:#d0cde1;stroke-width:0.22796771" />
      <path
         d="m 434.52567,583.4966 -20.68974,-3.20076 a 0.58975249,0.58975249 0 0 1 0.18032,-1.16561 l 20.68974,3.20075 a 0.58975249,0.58975249 0 1 1 -0.18032,1.16562 z"
         id="path1553"
         inkscape:connector-curvature="0"
         style="fill:#3f3d56;stroke-width:0.22796771" />
      <path
         d="m 435.05619,579.10299 -20.68974,-3.20076 a 0.58975249,0.58975249 0 1 1 0.18032,-1.16562 l 20.68974,3.20076 a 0.58975249,0.58975249 0 1 1 -0.18032,1.16562 z"
         id="path1555"
         inkscape:connector-curvature="0"
         style="fill:#3f3d56;stroke-width:0.22796771" />
      <path
         d="m 435.5867,574.70938 -20.68975,-3.20076 a 0.58975249,0.58975249 0 0 1 0.18032,-1.16562 l 20.68974,3.20076 a 0.58975249,0.58975249 0 0 1 -0.18032,1.16562 z"
         id="path1557"
         inkscape:connector-curvature="0"
         style="fill:#3f3d56;stroke-width:0.22796771" />
      <path
         d="m 423.53769,586.0533 c 4.10392,0.63489 7.78467,-1.13767 8.22115,-3.95912 l -14.86164,-2.29914 c -0.43649,2.82145 2.53657,5.62337 6.64049,6.25826 z"
         id="path1559"
         inkscape:connector-curvature="0"
         style="fill:#3f3d56;stroke-width:0.22796771" />
      <path
         d="m 430.97478,529.10094 c -0.88277,-0.13642 -1.61314,-0.83422 -2.01355,-1.30193 -0.1313,-0.15332 -0.25909,-0.31238 -0.38726,-0.47178 -0.46631,-0.58046 -0.90659,-1.12863 -1.51973,-1.41449 -1.35341,-0.63145 -2.9481,0.25054 -4.3288,1.19679 l -0.33357,-0.48634 c 1.51798,-1.04071 3.28812,-2.00205 4.91174,-1.24503 0.73746,0.344 1.24213,0.9722 1.73006,1.57961 0.12425,0.15472 0.24826,0.30896 0.37545,0.45772 0.41635,0.48619 1.24672,1.27406 2.13645,1.09235 a 2.8719145,2.8719145 0 0 0 1.02482,-0.54253 5.48874,5.48874 0 0 1 0.72524,-0.45761 2.8881366,2.8881366 0 0 1 3.17032,0.44805 5.7047759,5.7047759 0 0 1 0.43021,0.45498 c 0.26529,0.30241 0.51573,0.58781 0.84176,0.69157 0.48201,0.15411 0.99144,-0.1214 1.53123,-0.41246 0.5567,-0.3004 1.13217,-0.61116 1.78496,-0.5345 0.0212,0.002 0.0426,0.005 0.0636,0.009 1.16164,0.17971 1.69719,1.46438 2.00022,2.42315 l -0.56245,0.17756 c -0.41175,-1.30325 -0.9132,-1.95135 -1.57047,-2.0236 -0.46761,-0.055 -0.93786,0.19889 -1.43574,0.46759 -0.62413,0.33703 -1.27012,0.68539 -1.99041,0.45551 -0.48211,-0.1534 -0.79946,-0.51486 -1.1061,-0.86447 a 5.197037,5.197037 0 0 0 -0.38492,-0.40877 2.3173556,2.3173556 0 0 0 -2.51046,-0.35487 4.978131,4.978131 0 0 0 -0.64658,0.41063 3.3503617,3.3503617 0 0 1 -1.2469,0.63886 1.9386374,1.9386374 0 0 1 -0.68916,0.0153 z"
         id="path1561"
         inkscape:connector-curvature="0"
         style="fill:#d0cde1;stroke-width:0.22796771" />
    </g>
    <text
       id="text1572"
       y="81.214699"
       x="17.373411"
       style="font-style:normal;font-variant:normal;font-weight:bold;font-stretch:normal;font-size:24.44534302px;line-height:1.25;font-family:sans-serif;-inkscape-font-specification:'sans-serif, Bold';font-variant-ligatures:normal;font-variant-caps:normal;font-variant-numeric:normal;font-feature-settings:normal;text-align:start;letter-spacing:0px;word-spacing:0px;writing-mode:lr-tb;text-anchor:start;fill:#3f3d56;fill-opacity:1;stroke:none;stroke-width:0.61113358"
       xml:space="preserve"><tspan
         style="stroke-width:0.61113358;fill:#1a1a1a"
         y="81.214699"
         x="17.373411"
         id="tspan1570"
         sodipodi:role="line">Study Links</tspan></text>
    <rect
       y="52.672703"
       x="24.281523"
       height="5"
       width="60"
       id="rect1576"
       style="opacity:0.98000004;fill:#3f3d56;fill-opacity:1;stroke:none;stroke-width:29.22650719;stroke-linecap:round;stroke-linejoin:miter;stroke-miterlimit:4;stroke-dasharray:none;stroke-opacity:1" />
    <rect
       style="opacity:0.98000004;fill:#3f3d56;fill-opacity:1;stroke:none;stroke-width:29.22650719;stroke-linecap:round;stroke-linejoin:miter;stroke-miterlimit:4;stroke-dasharray:none;stroke-opacity:1"
       id="rect1578"
       width="60"
       height="5"
       x="111.01049"
       y="52.672703" />
  </g>
</svg>
